<mxfile host="Electron" agent="Mozilla/5.0 (X11; Linux x86_64) AppleWebKit/537.36 (KHTML, like Gecko) draw.io/24.7.5 Chrome/126.0.6478.183 Electron/31.3.0 Safari/537.36" version="24.7.5">
  <diagram id="f106602c-feb2-e66a-4537-3a34d633f6aa" name="Page-1">
    <mxGraphModel dx="928" dy="856" grid="1" gridSize="10" guides="1" tooltips="1" connect="0" arrows="0" fold="1" page="1" pageScale="1" pageWidth="1169" pageHeight="827" background="none" math="0" shadow="0">
      <root>
        <mxCell id="0" />
        <mxCell id="1" parent="0" />
        <mxCell id="1wwzodUEzshTRSnOpasv-627" value="" style="strokeColor=#dddddd;shadow=1;strokeWidth=1;rounded=1;absoluteArcSize=1;arcSize=2;" parent="1" vertex="1">
          <mxGeometry x="200" y="190" width="70" height="56.5" as="geometry" />
        </mxCell>
        <mxCell id="1wwzodUEzshTRSnOpasv-599" value="&lt;b&gt;Velero&lt;/b&gt;" style="fillColor=#F6F6F6;strokeColor=none;shadow=0;gradientColor=none;fontSize=14;align=left;spacing=10;fontColor=#717171;9E9E9E;verticalAlign=top;spacingTop=-4;fontStyle=0;spacingLeft=40;html=1;container=0;" parent="1" vertex="1">
          <mxGeometry x="325" y="380" width="620" height="140" as="geometry" />
        </mxCell>
        <mxCell id="14" value="&lt;b&gt;VUI&lt;/b&gt;" style="fillColor=#F6F6F6;strokeColor=none;shadow=0;gradientColor=none;fontSize=14;align=left;spacing=10;fontColor=#717171;9E9E9E;verticalAlign=top;spacingTop=-4;fontStyle=0;spacingLeft=40;html=1;container=0;" parent="1" vertex="1">
          <mxGeometry x="329.5" y="150" width="620.5" height="210" as="geometry" />
        </mxCell>
        <mxCell id="585" style="edgeStyle=elbowEdgeStyle;rounded=0;elbow=vertical;html=1;labelBackgroundColor=none;startArrow=blockThin;startFill=1;startSize=4;endArrow=blockThin;endFill=1;endSize=4;jettySize=auto;orthogonalLoop=1;strokeColor=#4284F3;strokeWidth=2;fontSize=12;fontColor=#000000;align=center;dashed=0;" parent="1" source="580" target="uoHBkqAiXrJTnw-RRtxm-618" edge="1">
          <mxGeometry relative="1" as="geometry">
            <Array as="points">
              <mxPoint x="749.5" y="250" />
            </Array>
          </mxGeometry>
        </mxCell>
        <mxCell id="580" value="Logical level" style="rounded=1;absoluteArcSize=1;arcSize=2;html=1;strokeColor=none;gradientColor=none;shadow=0;dashed=0;strokeColor=none;fontSize=12;fontColor=#9E9E9E;align=left;verticalAlign=top;spacing=10;spacingTop=-4;fillColor=#E1F5FE;" parent="1" vertex="1">
          <mxGeometry x="550" y="190" width="390" height="140" as="geometry" />
        </mxCell>
        <mxCell id="2" value="Architecture: Velero User Interface" style="fillColor=#4DA1F5;strokeColor=none;shadow=1;gradientColor=none;fontSize=14;align=left;spacingLeft=50;fontColor=#ffffff;html=1;" parent="1" vertex="1">
          <mxGeometry x="209.5" y="40" width="770.5" height="40" as="geometry" />
        </mxCell>
        <mxCell id="uoHBkqAiXrJTnw-RRtxm-618" value="" style="strokeColor=#dddddd;shadow=1;strokeWidth=1;rounded=1;absoluteArcSize=1;arcSize=2;" parent="1" vertex="1">
          <mxGeometry x="768" y="231.75" width="162" height="70" as="geometry" />
        </mxCell>
        <mxCell id="uoHBkqAiXrJTnw-RRtxm-619" value="&lt;font color=&quot;#000000&quot;&gt;Velero-Watchdog&lt;/font&gt;&lt;br&gt;&lt;font style=&quot;font-size: 10px;&quot;&gt;Notification engine&lt;/font&gt;" style="editableCssRules=.*;html=1;fontColor=#999999;shape=image;verticalLabelPosition=middle;verticalAlign=middle;labelPosition=right;align=left;spacingLeft=20;part=1;points=[];imageAspect=0;image=data:image/svg+xml,PHN2ZyB4bWxucz0iaHR0cDovL3d3dy53My5vcmcvMjAwMC9zdmciIHhtbG5zOnY9Imh0dHBzOi8vdmVjdGEuaW8vbmFubyIgd2lkdGg9IjE4LjMxOTk5OTY5NDgyNDIyIiBoZWlnaHQ9IjIwLjAwMDAwMTkwNzM0ODYzMyIgdmlld0JveD0iMCAwIDE4LjMxOTk5OTY5NDgyNDIyIDIwLjAwMDAwMTkwNzM0ODYzMyI+JiN4YTsJPHN0eWxlIHR5cGU9InRleHQvY3NzIj4mI3hhOwkuc3Qwe2ZpbGw6IzY2OWRmNjt9JiN4YTsJLnN0MXtmaWxsOiM0Mjg1ZjQ7fSYjeGE7CS5zdDJ7ZmlsbDojYWVjYmZhO30mI3hhOwk8L3N0eWxlPiYjeGE7CTxkZWZzPiYjeGE7CQk8ZmlsdGVyIGlkPSJBIiB4PSI0LjY0IiB5PSI0LjE5IiB3aWR0aD0iMTQuNzMiIGhlaWdodD0iMTIuNzYiIGZpbHRlclVuaXRzPSJ1c2VyU3BhY2VPblVzZSIgY29sb3ItaW50ZXJwb2xhdGlvbi1maWx0ZXJzPSJzUkdCIj4mI3hhOwkJCTxmZUZsb29kIGZsb29kLWNvbG9yPSIjZmZmIi8+JiN4YTsJCQk8ZmVCbGVuZCBpbj0iU291cmNlR3JhcGhpYyIvPiYjeGE7CQk8L2ZpbHRlcj4mI3hhOwkJPG1hc2sgaWQ9IkIiIHg9IjQuNjQiIHk9IjQuMTkiIHdpZHRoPSIxNC43MyIgaGVpZ2h0PSIxMi43NiIgbWFza1VuaXRzPSJ1c2VyU3BhY2VPblVzZSI+JiN4YTsJCQk8Y2lyY2xlIGN4PSIxMiIgY3k9IjEyLjIzIiByPSIzLjU4IiBmaWx0ZXI9InVybCgjQSkiLz4mI3hhOwkJPC9tYXNrPiYjeGE7CTwvZGVmcz4mI3hhOwk8ZyBjbGFzcz0ic3QwIj4mI3hhOwkJPGNpcmNsZSBjeD0iMTYuMTMiIGN5PSI2LjIxIiByPSIxLjcyIi8+JiN4YTsJCTxjaXJjbGUgY3g9IjIuMTkiIGN5PSI2LjIxIiByPSIxLjcyIi8+JiN4YTsJCTxjaXJjbGUgY3g9IjkuMTYiIGN5PSIxOC4yOCIgcj0iMS43MiIvPiYjeGE7CTwvZz4mI3hhOwk8ZyBtYXNrPSJ1cmwoI0IpIiB0cmFuc2Zvcm09InRyYW5zbGF0ZSgtMi44NCAtMikiPiYjeGE7CQk8cGF0aCB0cmFuc2Zvcm09Im1hdHJpeCguNSAtLjg3IC44NyAuNSAtNC41OSAyMC41MykiIGQ9Ik0xNC42OSAxMC4yMmgxLjU5djguMDRoLTEuNTl6IiBjbGFzcz0ic3QxIi8+JiN4YTsJCTxwYXRoIHRyYW5zZm9ybT0icm90YXRlKDMzMCA4LjUyMyAxNC4yNDQpIiBkPSJNNC40OSAxMy40NWg4LjA0djEuNTlINC40OXoiIGNsYXNzPSJzdDEiLz4mI3hhOwkJPHBhdGggZD0iTTExLjIgNC4xOWgxLjU5djguMDRIMTEuMnoiIGNsYXNzPSJzdDEiLz4mI3hhOwk8L2c+JiN4YTsJPGcgY2xhc3M9InN0MiI+JiN4YTsJCTxjaXJjbGUgY3g9IjkuMTYiIGN5PSIxMC4yMyIgcj0iMi43OCIvPiYjeGE7CQk8Y2lyY2xlIGN4PSIyLjE5IiBjeT0iMTQuMjUiIHI9IjIuMTkiLz4mI3hhOwkJPGNpcmNsZSBjeD0iMTYuMTMiIGN5PSIxNC4yNSIgcj0iMi4xOSIvPiYjeGE7CQk8Y2lyY2xlIGN4PSI5LjE2IiBjeT0iMi4xOSIgcj0iMi4xOSIvPiYjeGE7CTwvZz4mI3hhOzwvc3ZnPg==;" parent="uoHBkqAiXrJTnw-RRtxm-618" vertex="1">
          <mxGeometry width="27" height="30" relative="1" as="geometry">
            <mxPoint x="16" y="15" as="offset" />
          </mxGeometry>
        </mxCell>
        <mxCell id="1wwzodUEzshTRSnOpasv-601" value="Presentation Level" style="rounded=1;absoluteArcSize=1;arcSize=2;html=1;strokeColor=none;gradientColor=none;shadow=0;dashed=0;strokeColor=none;fontSize=12;fontColor=#9E9E9E;align=left;verticalAlign=top;spacing=10;spacingTop=-4;fillColor=#E1F5FE;" parent="1" vertex="1">
          <mxGeometry x="340" y="190" width="190" height="140" as="geometry" />
        </mxCell>
        <mxCell id="1wwzodUEzshTRSnOpasv-604" style="edgeStyle=elbowEdgeStyle;rounded=0;elbow=vertical;html=1;labelBackgroundColor=none;startArrow=blockThin;startFill=1;startSize=4;endArrow=blockThin;endFill=1;endSize=4;jettySize=auto;orthogonalLoop=1;strokeColor=#4284F3;strokeWidth=2;fontSize=12;fontColor=#000000;align=center;dashed=0;" parent="1" edge="1">
          <mxGeometry relative="1" as="geometry">
            <mxPoint x="750" y="270" as="sourcePoint" />
            <mxPoint x="750.0000000000002" y="269.71827586206905" as="targetPoint" />
          </mxGeometry>
        </mxCell>
        <mxCell id="1wwzodUEzshTRSnOpasv-638" value="" style="shape=image;verticalLabelPosition=bottom;labelBackgroundColor=default;verticalAlign=top;aspect=fixed;imageAspect=0;image=data:image/png,iVBORw0KGgoAAAANSUhEUgAAAC8AAAA1CAIAAABeCCUGAAAAA3NCSVQICAjb4U/gAAAEpUlEQVRYR+1YR2wTQRRdtwU7cWInoFBCgBAllFCCqEGU0CQjOgJxoAgOtANFAgFCICMQB0CUAwjBidAiigidEIIg9CICBAVCUWgKQRQ7dlxIM38z47V317s7XuwIoezBWs/8mf/m/T+/rMrn81H/zKP+Z5AwQFrQiJvjf+Gm0Uedf+UpfOeN4C3QitMmM3PmpXtdQTUIze8fs2l0nIw02bRyS1U6G5CKw09dV954ydTJSClHE7zxmiv2dz/rZVQRTEcGjafOt+iszV33ty4UGTRw7I/2+pUX7QTnlxKJAJr2Rg3SUPTee+ixS0qb3JxyNCpKhTaf1dswpltr9L692PHwc62cUtH5MNCcfunOLXFBmBE+eyaaOpuYYAGzy87bfrgbhTIkI6Ro8ss8a69Wby5ynCx1o319FMYFLwad6uA0s17HsGX3NC7JtzUowkOKBoIKAmGksYF4Z01L1O6wmNBgSWXt1psOEjJ4MkRoyn/Uv6iqg5XAQY7fRYTKLOmt52XFoPFcRSGRCM2REkzM1J56ACTEwY5syInLTNKhvwpCojwaiGnnyjxIwRz/0cUAadUUOJBJz2yrICTKo7nw2oOCbJ92uow28lk2KVazf7JZ3cRguCFRHs2J5/gSze5rEKOENz64E716uBENQkg8+KiGcKEMGvDfUr//TuquJ9wUxBYPimVD4o7bTsKQKIOG3H+FQBWERCk/IPRfOPfee04hGhjJTNKC68ALhMSl+ba82YkayeNLoQGTk/gvoCExxNPKWgjoMzKlzC0F1eEveRcOwDEtmIDUBKmThKSKlluhkug1IQUefeaKpdXTe4U4EISTc68832pwPRpSffBgO6Nmcnc9ymViwlJoxNZEb1zKUtHTKrYzx5LHn7u/u0iZF9uRfDyrPT2ia6tg+QAaKFw2FjL9UXM+B6aax6XhuhH0BiyFMktzQgFdP7lVYoCbUamAEXMzp58hwRAtlwIEx57h3Dc2iBgAF0DTxqAemEw//sLU2GmJurlZpDkyXDqhuEZLBiXToDR4OefPhHRswsvluKAJVxOJ/OVy3CZbMgIegxZy0Fgy9KiwA4a+uxTV2XJwYNsnTfSDIks6P6hy0LSNYYwFotANFFf8lttZyfytCpxuQBGo423BzxyQBB41YVdzJT/Y6u9/qlWpqOyUVikm3FxKwBGTZ795zuwdwi/5aEAILAQ0TuuJaYTvRdYiR5X/+wggSI7XWMfE56RyAheLTFoe9m/wURoVFTL34Tx1qdzLdCcCBadK3esLqoXtJQSnnRNMU3rwDR+u/PX33roGcCDszhqr1Xq2zLPqkh0+m8H5hnQKnHj3Xee2m7iMyupAwxr4Bdqqapj2t+CtF1pxKIFZVhTIbyp0wBXratZmtGX6Hoab4g+/F5z+hTYFff076MC60C+WfGU6OnhWZBuXZ8eyWnfdce57gAvviMjnzkwY1plhAVsq7wWTpIQdP1hk2/h4ocdFST5Q31x76918g+OtHeM0W8bFj+SmWZahaMjzq60KdJMpamgK3cXMv3EsFPYlsvJ8NEJ9zTnCj4bNqVuoqwWNkBP/SAs3LdyIMyA+8wextg/mD0t7pAAAAABJRU5ErkJggg==;" parent="1" vertex="1">
          <mxGeometry x="338" y="153" width="26.6" height="30" as="geometry" />
        </mxCell>
        <mxCell id="1wwzodUEzshTRSnOpasv-636" value="" style="shape=image;verticalLabelPosition=bottom;labelBackgroundColor=default;verticalAlign=top;aspect=fixed;imageAspect=0;image=data:image/png,iVBORw0KGgoAAAANSUhEUgAAACoAAAAwCAIAAADo7H/xAAAAA3NCSVQICAjb4U/gAAAFUElEQVRYR+1Xe2xTZRRfu+52rz7X7uXmGGzMPdgYSDZAQEY0m+hQNIaIMUPNFqIohsxoVHA+iZkvjMQwWJSIGqfBCRniFJwQYEwGo4ONQdn70ff7sdvb1rPd5fZre3fbbkv2z26a5n7f75zzO9853znfd1lutzts/h72/FFPMC/Qz2P85zn4nNks3ekOU1qdYxYiPjr8ntiZmApZR2d3NcrNf/RZFVbniJkAD8iHh7GzRBGLBRH5Uu62rNggV8UKvu5vafFGuQV+QMxsPU+CbcviBeNEsPTfXDfU/qdnZvVBwYmqZYKy9GgGraDod/6tau63MlhhgL7aKGXwIDD92p+GAkabgR4gBg8CFF7FacUsuYF+11nVqV764DHRg875YTvzyoJE97fpBoyEv/C09Hf0jppLWn+Fmc0Mm4mXzqj8daete1ZYmNo2VWDLJNjx8iRUOaO+nxreeT4tGKip13Ksy7Q9m4cK02+9bi1uJ9zL47mUKMr3aqFwV6EgVAjk1yRHHi1NCEz/9TXD5+2hVTlqlOG9doPk8SUxlAB97iFQDCZmA5lxF6pOk/seHf7RA3GHO41otaAJPthh+OyKJza/lSdBgyONMkAn5JbXWtQyNR4g+CfvWnb/oz5WltClxetkpgIpdnCTdNBEbGwYJjVJV178U/lEZuzm9OghM/Hgz15QfaeRxWLtyOWhUOszKXf1jr0XtKe2JlMe0Gy9ozdN702WXCqPU5wUyQ1nfd9l8gl4rgSDXnZFYa/+V+MDwaH3TrEIJnecVvpA0RzWUhH28bq4TGEECdHQH7iqP3DV4KM5h0M0jzS5fzKTB+v2WdbLywXPZvOEXPYtnWNL4yjqzfqUqJrVYlCB47+yWdWt82R3VSL3k3USEqo+p2kd9euhcN77PCfl5h+6TWbc+eEl7ZIjffAbNRMg83qLuqRhqGXQCu9QGihUJzPA8LDMgEJtY3YYopDSSpT+OozS0QS/30hs+mUY1rSvWJzGnwhPj87xyPERdMVUABkgkEebFQyhWZUtilkqmko8zNDQw+zW30eve1fIXOW++n5hVb6nY9K3naezvDozyf3GKlHDo4nlSM+ifIKdAeW0s8BjF4WgMexeIYSZmAh2Sar35cc385NjjY0YMDrI7MI/ZBom5Xr8x24TvCgsxFMnRkm0vnMi3yor8WW7Xmd34k4XtWPgBaDbOvz9i9pzQ1at3bn/8sQM+tAHHzz9a8C2Njly3OkmXG5JVPib5zUNPWZyTYceii9JjaLWt++iFo4ycvh2kagil09B394wftCqI4fvrhZni7GVCZ5jDOanpb+hwX0KjDI6s5cNKVFHHo730aXPPQjlxmGV+Z51wAx0wC0ZMVDE/vQrErgVOfycuKnOjwqAHYBgZm+x2F9x2tWTopXNyjODts3pMTVrxHyMDbmI4rA6VPgrZ1VwgQEZEhJgbJPDBQK39Q44C0gIvPl0gyRDEAEQbIs0vqfeKD8C0GvtLrPDdS+PA18Xe1rUoAbJq10vkUaHw90NXEnhcS6P2bc3KQACvreKRAVSLrQpOHJAq00xAe1ZKaQtClAJQA8ShnEXnALf3fQ6dcDifWJMY3PKDY46mRGNalU+P0eMEe4w+Co6JDNCzJ/LoSljUiUwPSnX1GuF0gIylIn5HS4BL+TxH1vsudv4ywdLD5pw4f+iXU+Vn78tambuv/Eo03K9o0M9fk2JXxix9Xlf3YsSIwsTuHlxWOkipu861O8QVu+/XDhhByf3PzyF8VyMDbfz0J5Z0YdGRSc9bduhE577uQX6uY9p0BYXgh90qOZecJ6D/z8Hltw4oe9yRgAAAABJRU5ErkJggg==;" parent="1" vertex="1">
          <mxGeometry x="338" y="384" width="26.25" height="30" as="geometry" />
        </mxCell>
        <mxCell id="1wwzodUEzshTRSnOpasv-658" value="" style="group" parent="1" vertex="1" connectable="0">
          <mxGeometry x="350" y="233.5" width="160" height="70" as="geometry" />
        </mxCell>
        <mxCell id="1wwzodUEzshTRSnOpasv-656" value="" style="strokeColor=#dddddd;shadow=1;strokeWidth=1;rounded=1;absoluteArcSize=1;arcSize=2;container=0;" parent="1wwzodUEzshTRSnOpasv-658" vertex="1">
          <mxGeometry x="-1" width="161.00313479623824" height="70" as="geometry" />
        </mxCell>
        <mxCell id="1wwzodUEzshTRSnOpasv-654" value="&lt;font color=&quot;#000000&quot; style=&quot;forced-color-adjust: none; font-family: Helvetica; font-size: 12px; font-style: normal; font-variant-ligatures: normal; font-variant-caps: normal; font-weight: 400; letter-spacing: normal; orphans: 2; text-indent: 0px; text-transform: none; widows: 2; word-spacing: 0px; -webkit-text-stroke-width: 0px; white-space: nowrap; background-color: rgb(251, 251, 251); text-decoration-thickness: initial; text-decoration-style: initial; text-decoration-color: initial;&quot;&gt;Velero-UI&lt;/font&gt;&lt;br style=&quot;forced-color-adjust: none; color: rgb(153, 153, 153); font-family: Helvetica; font-size: 12px; font-style: normal; font-variant-ligatures: normal; font-variant-caps: normal; font-weight: 400; letter-spacing: normal; orphans: 2; text-indent: 0px; text-transform: none; widows: 2; word-spacing: 0px; -webkit-text-stroke-width: 0px; white-space: nowrap; background-color: rgb(251, 251, 251); text-decoration-thickness: initial; text-decoration-style: initial; text-decoration-color: initial;&quot;&gt;&lt;span style=&quot;forced-color-adjust: none; color: rgb(153, 153, 153); font-family: Helvetica; font-style: normal; font-variant-ligatures: normal; font-variant-caps: normal; font-weight: 400; letter-spacing: normal; orphans: 2; text-indent: 0px; text-transform: none; widows: 2; word-spacing: 0px; -webkit-text-stroke-width: 0px; white-space: nowrap; background-color: rgb(251, 251, 251); text-decoration-thickness: initial; text-decoration-style: initial; text-decoration-color: initial; font-size: 10px;&quot;&gt;User interface&lt;/span&gt;" style="sketch=0;html=1;aspect=fixed;strokeColor=none;shadow=0;fillColor=#3B8DF1;verticalAlign=middle;labelPosition=right;verticalLabelPosition=middle;shape=mxgraph.gcp2.website;align=left;spacingLeft=20;" parent="1wwzodUEzshTRSnOpasv-658" vertex="1">
          <mxGeometry x="12.037617554858933" y="15.3125" width="27.443202614379082" height="26.62173202614379" as="geometry" />
        </mxCell>
        <mxCell id="1wwzodUEzshTRSnOpasv-624" style="edgeStyle=orthogonalEdgeStyle;rounded=0;elbow=vertical;html=1;labelBackgroundColor=none;startArrow=blockThin;startFill=1;startSize=4;endArrow=blockThin;endFill=1;endSize=4;jettySize=auto;orthogonalLoop=1;strokeColor=#4284F3;strokeWidth=2;fontSize=12;fontColor=#000000;align=center;dashed=0;" parent="1" edge="1">
          <mxGeometry relative="1" as="geometry">
            <mxPoint x="514" y="270.04333333333346" as="sourcePoint" />
            <mxPoint x="570" y="270" as="targetPoint" />
          </mxGeometry>
        </mxCell>
        <mxCell id="1wwzodUEzshTRSnOpasv-661" value="" style="strokeColor=#dddddd;shadow=1;strokeWidth=1;rounded=1;absoluteArcSize=1;arcSize=2;container=0;" parent="1" vertex="1">
          <mxGeometry x="349.75" y="420" width="580" height="70" as="geometry" />
        </mxCell>
        <mxCell id="1wwzodUEzshTRSnOpasv-663" value="&lt;font style=&quot;text-align: left;&quot; color=&quot;#000000&quot;&gt;Velero core&lt;/font&gt;&lt;br style=&quot;color: rgb(153, 153, 153); text-align: left;&quot;&gt;&lt;span style=&quot;color: rgb(153, 153, 153); text-align: left;&quot;&gt;Backup/restore resources and volumes&lt;/span&gt;" style="sketch=0;outlineConnect=0;fontColor=#ffffff;fillColor=#1ba1e2;strokeColor=#006EAF;dashed=0;verticalLabelPosition=middle;verticalAlign=middle;align=left;html=1;fontSize=12;fontStyle=0;aspect=fixed;pointerEvents=1;shape=mxgraph.aws4.backup_compute;spacingLeft=20;labelPosition=right;" parent="1" vertex="1">
          <mxGeometry x="370" y="432" width="40.52" height="39" as="geometry" />
        </mxCell>
        <mxCell id="1wwzodUEzshTRSnOpasv-670" value="" style="image;sketch=0;aspect=fixed;html=1;points=[];align=center;fontSize=12;image=img/lib/mscae/Kubernetes.svg;" parent="1" vertex="1">
          <mxGeometry x="308" y="112" width="30" height="28.8" as="geometry" />
        </mxCell>
        <mxCell id="1wwzodUEzshTRSnOpasv-671" style="edgeStyle=orthogonalEdgeStyle;rounded=0;elbow=vertical;html=1;labelBackgroundColor=none;startArrow=blockThin;startFill=1;startSize=4;endArrow=blockThin;endFill=1;endSize=4;jettySize=auto;orthogonalLoop=1;strokeColor=#4284F3;strokeWidth=2;fontSize=12;fontColor=#000000;align=center;dashed=0;" parent="1" edge="1">
          <mxGeometry relative="1" as="geometry">
            <mxPoint x="734" y="270.04333333333346" as="sourcePoint" />
            <mxPoint x="770" y="270" as="targetPoint" />
          </mxGeometry>
        </mxCell>
        <mxCell id="1wwzodUEzshTRSnOpasv-672" style="edgeStyle=orthogonalEdgeStyle;rounded=0;elbow=vertical;html=1;labelBackgroundColor=none;startArrow=blockThin;startFill=1;startSize=4;endArrow=blockThin;endFill=1;endSize=4;jettySize=auto;orthogonalLoop=1;strokeColor=#4284F3;strokeWidth=2;fontSize=12;fontColor=#000000;align=center;dashed=0;entryX=0.518;entryY=-0.043;entryDx=0;entryDy=0;entryPerimeter=0;" parent="1" target="1wwzodUEzshTRSnOpasv-661" edge="1">
          <mxGeometry relative="1" as="geometry">
            <mxPoint x="650.25" y="301.75" as="sourcePoint" />
            <mxPoint x="780" y="280" as="targetPoint" />
          </mxGeometry>
        </mxCell>
        <mxCell id="1wwzodUEzshTRSnOpasv-677" value="" style="aspect=fixed;sketch=0;html=1;dashed=0;whitespace=wrap;verticalLabelPosition=bottom;verticalAlign=top;fillColor=#2875E2;strokeColor=#ffffff;points=[[0.005,0.63,0],[0.1,0.2,0],[0.9,0.2,0],[0.5,0,0],[0.995,0.63,0],[0.72,0.99,0],[0.5,1,0],[0.28,0.99,0]];shape=mxgraph.kubernetes.icon2;prIcon=api" parent="1" vertex="1">
          <mxGeometry x="520" y="608.3832335329341" width="0.3373073610145394" height="0.32378916344088254" as="geometry" />
        </mxCell>
        <mxCell id="1wwzodUEzshTRSnOpasv-682" value="" style="group" parent="1" vertex="1" connectable="0">
          <mxGeometry x="570" y="230" width="160.5" height="70" as="geometry" />
        </mxCell>
        <mxCell id="1wwzodUEzshTRSnOpasv-675" value="" style="strokeColor=#dddddd;shadow=1;strokeWidth=1;rounded=1;absoluteArcSize=1;arcSize=2;fillColor=default;container=0;" parent="1wwzodUEzshTRSnOpasv-682" vertex="1">
          <mxGeometry width="160.5" height="70" as="geometry" />
        </mxCell>
        <mxCell id="1wwzodUEzshTRSnOpasv-678" value="&lt;font style=&quot;forced-color-adjust: none; font-family: Helvetica; font-size: 12px; font-style: normal; font-variant-ligatures: normal; font-variant-caps: normal; font-weight: 400; letter-spacing: normal; orphans: 2; text-align: left; text-indent: 0px; text-transform: none; widows: 2; word-spacing: 0px; -webkit-text-stroke-width: 0px; white-space: nowrap; background-color: rgb(251, 251, 251); text-decoration-thickness: initial; text-decoration-style: initial; text-decoration-color: initial;&quot; color=&quot;#000000&quot;&gt;Velero-API&lt;/font&gt;&lt;br style=&quot;forced-color-adjust: none; color: rgb(153, 153, 153); font-family: Helvetica; font-size: 12px; font-style: normal; font-variant-ligatures: normal; font-variant-caps: normal; font-weight: 400; letter-spacing: normal; orphans: 2; text-align: left; text-indent: 0px; text-transform: none; widows: 2; word-spacing: 0px; -webkit-text-stroke-width: 0px; white-space: nowrap; background-color: rgb(251, 251, 251); text-decoration-thickness: initial; text-decoration-style: initial; text-decoration-color: initial;&quot;&gt;&lt;font style=&quot;forced-color-adjust: none; color: rgb(153, 153, 153); font-family: Helvetica; font-style: normal; font-variant-ligatures: normal; font-variant-caps: normal; font-weight: 400; letter-spacing: normal; orphans: 2; text-align: left; text-indent: 0px; text-transform: none; widows: 2; word-spacing: 0px; -webkit-text-stroke-width: 0px; white-space: nowrap; background-color: rgb(251, 251, 251); text-decoration-thickness: initial; text-decoration-style: initial; text-decoration-color: initial; font-size: 10px;&quot;&gt;Process engine&lt;/font&gt;" style="aspect=fixed;sketch=0;html=1;dashed=0;whitespace=wrap;verticalLabelPosition=middle;verticalAlign=middle;fillColor=#2875E2;strokeColor=#ffffff;points=[[0.005,0.63,0],[0.1,0.2,0],[0.9,0.2,0],[0.5,0,0],[0.995,0.63,0],[0.72,0.99,0],[0.5,1,0],[0.28,0.99,0]];shape=mxgraph.kubernetes.icon2;prIcon=api;spacingLeft=26;labelPosition=right;align=left;" parent="1wwzodUEzshTRSnOpasv-682" vertex="1">
          <mxGeometry x="10" y="15" width="35" height="32.76" as="geometry" />
        </mxCell>
        <mxCell id="1wwzodUEzshTRSnOpasv-684" value="Kubernetes cluster" style="strokeColor=#147EBA;dashed=1;verticalAlign=top;fontStyle=0;fontColor=#147EBA;align=left;spacingLeft=40;" parent="1" vertex="1">
          <mxGeometry x="290" y="110" width="670" height="450" as="geometry" />
        </mxCell>
        <mxCell id="1wwzodUEzshTRSnOpasv-685" value="&lt;b&gt;Velero&lt;/b&gt;" style="fillColor=#F6F6F6;strokeColor=none;shadow=0;gradientColor=none;fontSize=14;align=left;spacing=10;fontColor=#717171;9E9E9E;verticalAlign=top;spacingTop=-4;fontStyle=0;spacingLeft=40;html=1;container=0;" parent="1" vertex="1">
          <mxGeometry x="329.5" y="430.5" width="410.5" height="119.5" as="geometry" />
        </mxCell>
        <mxCell id="1wwzodUEzshTRSnOpasv-686" value="&lt;b&gt;VUI&lt;/b&gt;" style="fillColor=#F6F6F6;strokeColor=none;shadow=0;gradientColor=none;fontSize=14;align=left;spacing=10;fontColor=#717171;9E9E9E;verticalAlign=top;spacingTop=-4;fontStyle=0;spacingLeft=40;html=1;container=0;" parent="1" vertex="1">
          <mxGeometry x="335" y="150" width="615" height="276" as="geometry" />
        </mxCell>
        <mxCell id="1wwzodUEzshTRSnOpasv-688" value="Logical level" style="rounded=1;absoluteArcSize=1;arcSize=2;html=1;strokeColor=none;gradientColor=none;shadow=0;dashed=0;strokeColor=none;fontSize=12;fontColor=#9E9E9E;align=left;verticalAlign=top;spacing=10;spacingTop=-4;fillColor=#E1F5FE;" parent="1" vertex="1">
          <mxGeometry x="340.4" y="314" width="390" height="100" as="geometry" />
        </mxCell>
        <mxCell id="1wwzodUEzshTRSnOpasv-689" value="Architecture: Velero User Interface (multicluster)" style="fillColor=#4DA1F5;strokeColor=none;shadow=1;gradientColor=none;fontSize=14;align=left;spacingLeft=50;fontColor=#ffffff;html=1;" parent="1" vertex="1">
          <mxGeometry x="209.5" y="40" width="770.5" height="40" as="geometry" />
        </mxCell>
        <mxCell id="1wwzodUEzshTRSnOpasv-690" value="" style="strokeColor=#dddddd;shadow=1;strokeWidth=1;rounded=1;absoluteArcSize=1;arcSize=2;" parent="1" vertex="1">
          <mxGeometry x="529.25" y="340" width="161" height="70" as="geometry" />
        </mxCell>
        <mxCell id="1wwzodUEzshTRSnOpasv-691" value="&lt;font color=&quot;#000000&quot;&gt;VUI-Watchdog&lt;/font&gt;&lt;br&gt;&lt;font style=&quot;font-size: 10px;&quot;&gt;Notification engine&lt;/font&gt;" style="editableCssRules=.*;html=1;fontColor=#999999;shape=image;verticalLabelPosition=middle;verticalAlign=middle;labelPosition=right;align=left;spacingLeft=20;part=1;points=[];imageAspect=0;image=data:image/svg+xml,PHN2ZyB4bWxucz0iaHR0cDovL3d3dy53My5vcmcvMjAwMC9zdmciIHhtbG5zOnY9Imh0dHBzOi8vdmVjdGEuaW8vbmFubyIgd2lkdGg9IjE4LjMxOTk5OTY5NDgyNDIyIiBoZWlnaHQ9IjIwLjAwMDAwMTkwNzM0ODYzMyIgdmlld0JveD0iMCAwIDE4LjMxOTk5OTY5NDgyNDIyIDIwLjAwMDAwMTkwNzM0ODYzMyI+JiN4YTsJPHN0eWxlIHR5cGU9InRleHQvY3NzIj4mI3hhOwkuc3Qwe2ZpbGw6IzY2OWRmNjt9JiN4YTsJLnN0MXtmaWxsOiM0Mjg1ZjQ7fSYjeGE7CS5zdDJ7ZmlsbDojYWVjYmZhO30mI3hhOwk8L3N0eWxlPiYjeGE7CTxkZWZzPiYjeGE7CQk8ZmlsdGVyIGlkPSJBIiB4PSI0LjY0IiB5PSI0LjE5IiB3aWR0aD0iMTQuNzMiIGhlaWdodD0iMTIuNzYiIGZpbHRlclVuaXRzPSJ1c2VyU3BhY2VPblVzZSIgY29sb3ItaW50ZXJwb2xhdGlvbi1maWx0ZXJzPSJzUkdCIj4mI3hhOwkJCTxmZUZsb29kIGZsb29kLWNvbG9yPSIjZmZmIi8+JiN4YTsJCQk8ZmVCbGVuZCBpbj0iU291cmNlR3JhcGhpYyIvPiYjeGE7CQk8L2ZpbHRlcj4mI3hhOwkJPG1hc2sgaWQ9IkIiIHg9IjQuNjQiIHk9IjQuMTkiIHdpZHRoPSIxNC43MyIgaGVpZ2h0PSIxMi43NiIgbWFza1VuaXRzPSJ1c2VyU3BhY2VPblVzZSI+JiN4YTsJCQk8Y2lyY2xlIGN4PSIxMiIgY3k9IjEyLjIzIiByPSIzLjU4IiBmaWx0ZXI9InVybCgjQSkiLz4mI3hhOwkJPC9tYXNrPiYjeGE7CTwvZGVmcz4mI3hhOwk8ZyBjbGFzcz0ic3QwIj4mI3hhOwkJPGNpcmNsZSBjeD0iMTYuMTMiIGN5PSI2LjIxIiByPSIxLjcyIi8+JiN4YTsJCTxjaXJjbGUgY3g9IjIuMTkiIGN5PSI2LjIxIiByPSIxLjcyIi8+JiN4YTsJCTxjaXJjbGUgY3g9IjkuMTYiIGN5PSIxOC4yOCIgcj0iMS43MiIvPiYjeGE7CTwvZz4mI3hhOwk8ZyBtYXNrPSJ1cmwoI0IpIiB0cmFuc2Zvcm09InRyYW5zbGF0ZSgtMi44NCAtMikiPiYjeGE7CQk8cGF0aCB0cmFuc2Zvcm09Im1hdHJpeCguNSAtLjg3IC44NyAuNSAtNC41OSAyMC41MykiIGQ9Ik0xNC42OSAxMC4yMmgxLjU5djguMDRoLTEuNTl6IiBjbGFzcz0ic3QxIi8+JiN4YTsJCTxwYXRoIHRyYW5zZm9ybT0icm90YXRlKDMzMCA4LjUyMyAxNC4yNDQpIiBkPSJNNC40OSAxMy40NWg4LjA0djEuNTlINC40OXoiIGNsYXNzPSJzdDEiLz4mI3hhOwkJPHBhdGggZD0iTTExLjIgNC4xOWgxLjU5djguMDRIMTEuMnoiIGNsYXNzPSJzdDEiLz4mI3hhOwk8L2c+JiN4YTsJPGcgY2xhc3M9InN0MiI+JiN4YTsJCTxjaXJjbGUgY3g9IjkuMTYiIGN5PSIxMC4yMyIgcj0iMi43OCIvPiYjeGE7CQk8Y2lyY2xlIGN4PSIyLjE5IiBjeT0iMTQuMjUiIHI9IjIuMTkiLz4mI3hhOwkJPGNpcmNsZSBjeD0iMTYuMTMiIGN5PSIxNC4yNSIgcj0iMi4xOSIvPiYjeGE7CQk8Y2lyY2xlIGN4PSI5LjE2IiBjeT0iMi4xOSIgcj0iMi4xOSIvPiYjeGE7CTwvZz4mI3hhOzwvc3ZnPg==;" parent="1wwzodUEzshTRSnOpasv-690" vertex="1">
          <mxGeometry width="27" height="30" relative="1" as="geometry">
            <mxPoint x="16" y="15" as="offset" />
          </mxGeometry>
        </mxCell>
        <mxCell id="1wwzodUEzshTRSnOpasv-692" value="Presentation Level" style="rounded=1;absoluteArcSize=1;arcSize=2;html=1;strokeColor=none;gradientColor=none;shadow=0;dashed=0;strokeColor=none;fontSize=12;fontColor=#9E9E9E;align=left;verticalAlign=top;spacing=10;spacingTop=-4;fillColor=#E1F5FE;" parent="1" vertex="1">
          <mxGeometry x="340" y="190" width="190" height="120" as="geometry" />
        </mxCell>
        <mxCell id="1wwzodUEzshTRSnOpasv-693" style="edgeStyle=elbowEdgeStyle;rounded=0;elbow=vertical;html=1;labelBackgroundColor=none;startArrow=blockThin;startFill=1;startSize=4;endArrow=blockThin;endFill=1;endSize=4;jettySize=auto;orthogonalLoop=1;strokeColor=#4284F3;strokeWidth=2;fontSize=12;fontColor=#000000;align=center;dashed=0;" parent="1" edge="1">
          <mxGeometry relative="1" as="geometry">
            <mxPoint x="750" y="270" as="sourcePoint" />
            <mxPoint x="750.0000000000002" y="269.71827586206905" as="targetPoint" />
          </mxGeometry>
        </mxCell>
        <mxCell id="1wwzodUEzshTRSnOpasv-694" value="" style="outlineConnect=0;dashed=0;verticalLabelPosition=bottom;verticalAlign=top;align=right;html=1;fontSize=12;fontStyle=0;aspect=fixed;pointerEvents=1;shape=mxgraph.aws4.users;fillColor=#0066CC;strokeColor=#36393d;" parent="1" vertex="1">
          <mxGeometry x="218" y="207.5" width="34" height="32" as="geometry" />
        </mxCell>
        <mxCell id="1wwzodUEzshTRSnOpasv-695" value="" style="shape=image;verticalLabelPosition=bottom;labelBackgroundColor=default;verticalAlign=top;aspect=fixed;imageAspect=0;image=data:image/png,iVBORw0KGgoAAAANSUhEUgAAAC8AAAA1CAIAAABeCCUGAAAAA3NCSVQICAjb4U/gAAAEpUlEQVRYR+1YR2wTQRRdtwU7cWInoFBCgBAllFCCqEGU0CQjOgJxoAgOtANFAgFCICMQB0CUAwjBidAiigidEIIg9CICBAVCUWgKQRQ7dlxIM38z47V317s7XuwIoezBWs/8mf/m/T+/rMrn81H/zKP+Z5AwQFrQiJvjf+Gm0Uedf+UpfOeN4C3QitMmM3PmpXtdQTUIze8fs2l0nIw02bRyS1U6G5CKw09dV954ydTJSClHE7zxmiv2dz/rZVQRTEcGjafOt+iszV33ty4UGTRw7I/2+pUX7QTnlxKJAJr2Rg3SUPTee+ixS0qb3JxyNCpKhTaf1dswpltr9L692PHwc62cUtH5MNCcfunOLXFBmBE+eyaaOpuYYAGzy87bfrgbhTIkI6Ro8ss8a69Wby5ynCx1o319FMYFLwad6uA0s17HsGX3NC7JtzUowkOKBoIKAmGksYF4Z01L1O6wmNBgSWXt1psOEjJ4MkRoyn/Uv6iqg5XAQY7fRYTKLOmt52XFoPFcRSGRCM2REkzM1J56ACTEwY5syInLTNKhvwpCojwaiGnnyjxIwRz/0cUAadUUOJBJz2yrICTKo7nw2oOCbJ92uow28lk2KVazf7JZ3cRguCFRHs2J5/gSze5rEKOENz64E716uBENQkg8+KiGcKEMGvDfUr//TuquJ9wUxBYPimVD4o7bTsKQKIOG3H+FQBWERCk/IPRfOPfee04hGhjJTNKC68ALhMSl+ba82YkayeNLoQGTk/gvoCExxNPKWgjoMzKlzC0F1eEveRcOwDEtmIDUBKmThKSKlluhkug1IQUefeaKpdXTe4U4EISTc68832pwPRpSffBgO6Nmcnc9ymViwlJoxNZEb1zKUtHTKrYzx5LHn7u/u0iZF9uRfDyrPT2ia6tg+QAaKFw2FjL9UXM+B6aax6XhuhH0BiyFMktzQgFdP7lVYoCbUamAEXMzp58hwRAtlwIEx57h3Dc2iBgAF0DTxqAemEw//sLU2GmJurlZpDkyXDqhuEZLBiXToDR4OefPhHRswsvluKAJVxOJ/OVy3CZbMgIegxZy0Fgy9KiwA4a+uxTV2XJwYNsnTfSDIks6P6hy0LSNYYwFotANFFf8lttZyfytCpxuQBGo423BzxyQBB41YVdzJT/Y6u9/qlWpqOyUVikm3FxKwBGTZ795zuwdwi/5aEAILAQ0TuuJaYTvRdYiR5X/+wggSI7XWMfE56RyAheLTFoe9m/wURoVFTL34Tx1qdzLdCcCBadK3esLqoXtJQSnnRNMU3rwDR+u/PX33roGcCDszhqr1Xq2zLPqkh0+m8H5hnQKnHj3Xee2m7iMyupAwxr4Bdqqapj2t+CtF1pxKIFZVhTIbyp0wBXratZmtGX6Hoab4g+/F5z+hTYFff076MC60C+WfGU6OnhWZBuXZ8eyWnfdce57gAvviMjnzkwY1plhAVsq7wWTpIQdP1hk2/h4ocdFST5Q31x76918g+OtHeM0W8bFj+SmWZahaMjzq60KdJMpamgK3cXMv3EsFPYlsvJ8NEJ9zTnCj4bNqVuoqwWNkBP/SAs3LdyIMyA+8wextg/mD0t7pAAAAABJRU5ErkJggg==;" parent="1" vertex="1">
          <mxGeometry x="338" y="153" width="26.6" height="30" as="geometry" />
        </mxCell>
        <mxCell id="1wwzodUEzshTRSnOpasv-696" value="" style="shape=image;verticalLabelPosition=bottom;labelBackgroundColor=default;verticalAlign=top;aspect=fixed;imageAspect=0;image=data:image/png,iVBORw0KGgoAAAANSUhEUgAAACoAAAAwCAIAAADo7H/xAAAAA3NCSVQICAjb4U/gAAAFUElEQVRYR+1Xe2xTZRRfu+52rz7X7uXmGGzMPdgYSDZAQEY0m+hQNIaIMUPNFqIohsxoVHA+iZkvjMQwWJSIGqfBCRniFJwQYEwGo4ONQdn70ff7sdvb1rPd5fZre3fbbkv2z26a5n7f75zzO9853znfd1lutzts/h72/FFPMC/Qz2P85zn4nNks3ekOU1qdYxYiPjr8ntiZmApZR2d3NcrNf/RZFVbniJkAD8iHh7GzRBGLBRH5Uu62rNggV8UKvu5vafFGuQV+QMxsPU+CbcviBeNEsPTfXDfU/qdnZvVBwYmqZYKy9GgGraDod/6tau63MlhhgL7aKGXwIDD92p+GAkabgR4gBg8CFF7FacUsuYF+11nVqV764DHRg875YTvzyoJE97fpBoyEv/C09Hf0jppLWn+Fmc0Mm4mXzqj8daete1ZYmNo2VWDLJNjx8iRUOaO+nxreeT4tGKip13Ksy7Q9m4cK02+9bi1uJ9zL47mUKMr3aqFwV6EgVAjk1yRHHi1NCEz/9TXD5+2hVTlqlOG9doPk8SUxlAB97iFQDCZmA5lxF6pOk/seHf7RA3GHO41otaAJPthh+OyKJza/lSdBgyONMkAn5JbXWtQyNR4g+CfvWnb/oz5WltClxetkpgIpdnCTdNBEbGwYJjVJV178U/lEZuzm9OghM/Hgz15QfaeRxWLtyOWhUOszKXf1jr0XtKe2JlMe0Gy9ozdN702WXCqPU5wUyQ1nfd9l8gl4rgSDXnZFYa/+V+MDwaH3TrEIJnecVvpA0RzWUhH28bq4TGEECdHQH7iqP3DV4KM5h0M0jzS5fzKTB+v2WdbLywXPZvOEXPYtnWNL4yjqzfqUqJrVYlCB47+yWdWt82R3VSL3k3USEqo+p2kd9euhcN77PCfl5h+6TWbc+eEl7ZIjffAbNRMg83qLuqRhqGXQCu9QGihUJzPA8LDMgEJtY3YYopDSSpT+OozS0QS/30hs+mUY1rSvWJzGnwhPj87xyPERdMVUABkgkEebFQyhWZUtilkqmko8zNDQw+zW30eve1fIXOW++n5hVb6nY9K3naezvDozyf3GKlHDo4nlSM+ifIKdAeW0s8BjF4WgMexeIYSZmAh2Sar35cc385NjjY0YMDrI7MI/ZBom5Xr8x24TvCgsxFMnRkm0vnMi3yor8WW7Xmd34k4XtWPgBaDbOvz9i9pzQ1at3bn/8sQM+tAHHzz9a8C2Njly3OkmXG5JVPib5zUNPWZyTYceii9JjaLWt++iFo4ycvh2kagil09B394wftCqI4fvrhZni7GVCZ5jDOanpb+hwX0KjDI6s5cNKVFHHo730aXPPQjlxmGV+Z51wAx0wC0ZMVDE/vQrErgVOfycuKnOjwqAHYBgZm+x2F9x2tWTopXNyjODts3pMTVrxHyMDbmI4rA6VPgrZ1VwgQEZEhJgbJPDBQK39Q44C0gIvPl0gyRDEAEQbIs0vqfeKD8C0GvtLrPDdS+PA18Xe1rUoAbJq10vkUaHw90NXEnhcS6P2bc3KQACvreKRAVSLrQpOHJAq00xAe1ZKaQtClAJQA8ShnEXnALf3fQ6dcDifWJMY3PKDY46mRGNalU+P0eMEe4w+Co6JDNCzJ/LoSljUiUwPSnX1GuF0gIylIn5HS4BL+TxH1vsudv4ywdLD5pw4f+iXU+Vn78tambuv/Eo03K9o0M9fk2JXxix9Xlf3YsSIwsTuHlxWOkipu861O8QVu+/XDhhByf3PzyF8VyMDbfz0J5Z0YdGRSc9bduhE577uQX6uY9p0BYXgh90qOZecJ6D/z8Hltw4oe9yRgAAAABJRU5ErkJggg==;" parent="1" vertex="1">
          <mxGeometry x="338" y="435" width="26.25" height="30" as="geometry" />
        </mxCell>
        <mxCell id="1wwzodUEzshTRSnOpasv-697" value="" style="group" parent="1" vertex="1" connectable="0">
          <mxGeometry x="350" y="233.5" width="160" height="70" as="geometry" />
        </mxCell>
        <mxCell id="1wwzodUEzshTRSnOpasv-698" value="" style="strokeColor=#dddddd;shadow=1;strokeWidth=1;rounded=1;absoluteArcSize=1;arcSize=2;container=0;" parent="1wwzodUEzshTRSnOpasv-697" vertex="1">
          <mxGeometry x="-1" width="161.00313479623824" height="70" as="geometry" />
        </mxCell>
        <mxCell id="1wwzodUEzshTRSnOpasv-699" value="&lt;font color=&quot;#000000&quot; style=&quot;forced-color-adjust: none; font-family: Helvetica; font-size: 12px; font-style: normal; font-variant-ligatures: normal; font-variant-caps: normal; font-weight: 400; letter-spacing: normal; orphans: 2; text-indent: 0px; text-transform: none; widows: 2; word-spacing: 0px; -webkit-text-stroke-width: 0px; white-space: nowrap; background-color: rgb(251, 251, 251); text-decoration-thickness: initial; text-decoration-style: initial; text-decoration-color: initial;&quot;&gt;VUI-UI&lt;/font&gt;&lt;br style=&quot;forced-color-adjust: none; color: rgb(153, 153, 153); font-family: Helvetica; font-size: 12px; font-style: normal; font-variant-ligatures: normal; font-variant-caps: normal; font-weight: 400; letter-spacing: normal; orphans: 2; text-indent: 0px; text-transform: none; widows: 2; word-spacing: 0px; -webkit-text-stroke-width: 0px; white-space: nowrap; background-color: rgb(251, 251, 251); text-decoration-thickness: initial; text-decoration-style: initial; text-decoration-color: initial;&quot;&gt;&lt;span style=&quot;forced-color-adjust: none; color: rgb(153, 153, 153); font-family: Helvetica; font-style: normal; font-variant-ligatures: normal; font-variant-caps: normal; font-weight: 400; letter-spacing: normal; orphans: 2; text-indent: 0px; text-transform: none; widows: 2; word-spacing: 0px; -webkit-text-stroke-width: 0px; white-space: nowrap; background-color: rgb(251, 251, 251); text-decoration-thickness: initial; text-decoration-style: initial; text-decoration-color: initial; font-size: 10px;&quot;&gt;User interface&lt;/span&gt;" style="sketch=0;html=1;aspect=fixed;strokeColor=none;shadow=0;fillColor=#3B8DF1;verticalAlign=middle;labelPosition=right;verticalLabelPosition=middle;shape=mxgraph.gcp2.website;align=left;spacingLeft=20;" parent="1wwzodUEzshTRSnOpasv-697" vertex="1">
          <mxGeometry x="12.037617554858933" y="15.3125" width="27.443202614379082" height="26.62173202614379" as="geometry" />
        </mxCell>
        <mxCell id="1wwzodUEzshTRSnOpasv-704" style="edgeStyle=elbowEdgeStyle;rounded=0;html=1;labelBackgroundColor=none;startArrow=blockThin;startFill=1;endArrow=blockThin;endFill=1;jettySize=auto;orthogonalLoop=1;strokeColor=#4284F3;strokeWidth=2;fontSize=12;fontColor=#000000;align=center;exitX=1.04;exitY=0.832;exitDx=0;exitDy=0;exitPerimeter=0;entryX=-0.002;entryY=0.455;entryDx=0;entryDy=0;entryPerimeter=0;" parent="1" source="1wwzodUEzshTRSnOpasv-627" target="1wwzodUEzshTRSnOpasv-698" edge="1">
          <mxGeometry relative="1" as="geometry">
            <mxPoint x="282.54999999999995" y="329.9984999999999" as="sourcePoint" />
            <mxPoint x="570.0004999999999" y="263.3570000000002" as="targetPoint" />
            <Array as="points">
              <mxPoint x="320" y="290" />
            </Array>
          </mxGeometry>
        </mxCell>
        <mxCell id="1wwzodUEzshTRSnOpasv-705" value="" style="image;sketch=0;aspect=fixed;html=1;points=[];align=center;fontSize=12;image=img/lib/mscae/Kubernetes.svg;" parent="1" vertex="1">
          <mxGeometry x="298" y="112" width="30" height="28.8" as="geometry" />
        </mxCell>
        <mxCell id="1wwzodUEzshTRSnOpasv-708" value="" style="aspect=fixed;sketch=0;html=1;dashed=0;whitespace=wrap;verticalLabelPosition=bottom;verticalAlign=top;fillColor=#2875E2;strokeColor=#ffffff;points=[[0.005,0.63,0],[0.1,0.2,0],[0.9,0.2,0],[0.5,0,0],[0.995,0.63,0],[0.72,0.99,0],[0.5,1,0],[0.28,0.99,0]];shape=mxgraph.kubernetes.icon2;prIcon=api" parent="1" vertex="1">
          <mxGeometry x="520" y="608.3832335329341" width="0.3373073610145394" height="0.32378916344088254" as="geometry" />
        </mxCell>
        <mxCell id="1wwzodUEzshTRSnOpasv-709" value="" style="group" parent="1" vertex="1" connectable="0">
          <mxGeometry x="390" y="340" width="150.5" height="70" as="geometry" />
        </mxCell>
        <mxCell id="1wwzodUEzshTRSnOpasv-710" value="" style="strokeColor=#dddddd;shadow=1;strokeWidth=1;rounded=1;absoluteArcSize=1;arcSize=2;fillColor=default;container=0;" parent="1wwzodUEzshTRSnOpasv-709" vertex="1">
          <mxGeometry x="-40" width="150.5" height="70" as="geometry" />
        </mxCell>
        <mxCell id="1wwzodUEzshTRSnOpasv-711" value="&lt;font style=&quot;forced-color-adjust: none; font-family: Helvetica; font-size: 12px; font-style: normal; font-variant-ligatures: normal; font-variant-caps: normal; font-weight: 400; letter-spacing: normal; orphans: 2; text-align: left; text-indent: 0px; text-transform: none; widows: 2; word-spacing: 0px; -webkit-text-stroke-width: 0px; white-space: nowrap; background-color: rgb(251, 251, 251); text-decoration-thickness: initial; text-decoration-style: initial; text-decoration-color: initial;&quot; color=&quot;#000000&quot;&gt;VUI-API&lt;/font&gt;&lt;br style=&quot;forced-color-adjust: none; color: rgb(153, 153, 153); font-family: Helvetica; font-size: 12px; font-style: normal; font-variant-ligatures: normal; font-variant-caps: normal; font-weight: 400; letter-spacing: normal; orphans: 2; text-align: left; text-indent: 0px; text-transform: none; widows: 2; word-spacing: 0px; -webkit-text-stroke-width: 0px; white-space: nowrap; background-color: rgb(251, 251, 251); text-decoration-thickness: initial; text-decoration-style: initial; text-decoration-color: initial;&quot;&gt;&lt;font style=&quot;forced-color-adjust: none; color: rgb(153, 153, 153); font-family: Helvetica; font-style: normal; font-variant-ligatures: normal; font-variant-caps: normal; font-weight: 400; letter-spacing: normal; orphans: 2; text-align: left; text-indent: 0px; text-transform: none; widows: 2; word-spacing: 0px; -webkit-text-stroke-width: 0px; white-space: nowrap; background-color: rgb(251, 251, 251); text-decoration-thickness: initial; text-decoration-style: initial; text-decoration-color: initial; font-size: 10px;&quot;&gt;Process engine&lt;/font&gt;" style="aspect=fixed;sketch=0;html=1;dashed=0;whitespace=wrap;verticalLabelPosition=middle;verticalAlign=middle;fillColor=#2875E2;strokeColor=#ffffff;points=[[0.005,0.63,0],[0.1,0.2,0],[0.9,0.2,0],[0.5,0,0],[0.995,0.63,0],[0.72,0.99,0],[0.5,1,0],[0.28,0.99,0]];shape=mxgraph.kubernetes.icon2;prIcon=api;spacingLeft=26;labelPosition=right;align=left;" parent="1wwzodUEzshTRSnOpasv-709" vertex="1">
          <mxGeometry x="-32.00305295950159" y="13.279999999999973" width="32.81931464174455" height="30.718878504672894" as="geometry" />
        </mxCell>
        <mxCell id="1wwzodUEzshTRSnOpasv-701" value="" style="strokeColor=#dddddd;shadow=1;strokeWidth=1;rounded=1;absoluteArcSize=1;arcSize=2;container=0;" parent="1" vertex="1">
          <mxGeometry x="360" y="470" width="360" height="70" as="geometry" />
        </mxCell>
        <mxCell id="1wwzodUEzshTRSnOpasv-702" value="&lt;font style=&quot;text-align: left;&quot; color=&quot;#000000&quot;&gt;Velero core&lt;/font&gt;&lt;br style=&quot;color: rgb(153, 153, 153); text-align: left;&quot;&gt;&lt;span style=&quot;color: rgb(153, 153, 153); text-align: left;&quot;&gt;Backup/restore resources and volumes&lt;/span&gt;" style="sketch=0;outlineConnect=0;fontColor=#ffffff;fillColor=#1ba1e2;strokeColor=#006EAF;dashed=0;verticalLabelPosition=middle;verticalAlign=middle;align=left;html=1;fontSize=12;fontStyle=0;aspect=fixed;pointerEvents=1;shape=mxgraph.aws4.backup_compute;spacingLeft=20;labelPosition=right;" parent="1" vertex="1">
          <mxGeometry x="378.50431034482756" y="482" width="37.02689655172414" height="35.63793103448276" as="geometry" />
        </mxCell>
        <mxCell id="1wwzodUEzshTRSnOpasv-738" value="Gateway level" style="rounded=1;absoluteArcSize=1;arcSize=2;html=1;strokeColor=none;gradientColor=none;shadow=0;dashed=0;strokeColor=none;fontSize=12;fontColor=#9E9E9E;align=left;verticalAlign=top;spacing=10;spacingTop=-4;fillColor=#E1F5FE;" parent="1" vertex="1">
          <mxGeometry x="559.5" y="190" width="370.5" height="120" as="geometry" />
        </mxCell>
        <mxCell id="1wwzodUEzshTRSnOpasv-713" value="" style="strokeColor=#dddddd;shadow=1;strokeWidth=1;rounded=1;absoluteArcSize=1;arcSize=2;fillColor=default;container=0;" parent="1" vertex="1">
          <mxGeometry x="570" y="233.5" width="320" height="70" as="geometry" />
        </mxCell>
        <mxCell id="1wwzodUEzshTRSnOpasv-714" value="&lt;font style=&quot;forced-color-adjust: none; font-family: Helvetica; font-size: 12px; font-style: normal; font-variant-ligatures: normal; font-variant-caps: normal; font-weight: 400; letter-spacing: normal; orphans: 2; text-align: left; text-indent: 0px; text-transform: none; widows: 2; word-spacing: 0px; -webkit-text-stroke-width: 0px; white-space: nowrap; background-color: rgb(251, 251, 251); text-decoration-thickness: initial; text-decoration-style: initial; text-decoration-color: initial;&quot; color=&quot;#000000&quot;&gt;VUI-Core&lt;/font&gt;&lt;br style=&quot;forced-color-adjust: none; color: rgb(153, 153, 153); font-family: Helvetica; font-size: 12px; font-style: normal; font-variant-ligatures: normal; font-variant-caps: normal; font-weight: 400; letter-spacing: normal; orphans: 2; text-align: left; text-indent: 0px; text-transform: none; widows: 2; word-spacing: 0px; -webkit-text-stroke-width: 0px; white-space: nowrap; background-color: rgb(251, 251, 251); text-decoration-thickness: initial; text-decoration-style: initial; text-decoration-color: initial;&quot;&gt;&lt;font style=&quot;forced-color-adjust: none; color: rgb(153, 153, 153); font-family: Helvetica; font-style: normal; font-variant-ligatures: normal; font-variant-caps: normal; font-weight: 400; letter-spacing: normal; orphans: 2; text-align: left; text-indent: 0px; text-transform: none; widows: 2; word-spacing: 0px; -webkit-text-stroke-width: 0px; white-space: nowrap; background-color: rgb(251, 251, 251); text-decoration-thickness: initial; text-decoration-style: initial; text-decoration-color: initial; font-size: 10px;&quot;&gt;Gateway engine&lt;/font&gt;" style="aspect=fixed;sketch=0;html=1;dashed=0;whitespace=wrap;verticalLabelPosition=middle;verticalAlign=middle;fillColor=#2875E2;strokeColor=#ffffff;points=[[0.005,0.63,0],[0.1,0.2,0],[0.9,0.2,0],[0.5,0,0],[0.995,0.63,0],[0.72,0.99,0],[0.5,1,0],[0.28,0.99,0]];shape=mxgraph.kubernetes.icon2;prIcon=api;spacingLeft=26;labelPosition=right;align=left;" parent="1" vertex="1">
          <mxGeometry x="585" y="246.5" width="35" height="32.76" as="geometry" />
        </mxCell>
        <mxCell id="1wwzodUEzshTRSnOpasv-703" style="edgeStyle=elbowEdgeStyle;rounded=0;html=1;labelBackgroundColor=none;startArrow=blockThin;startFill=1;endArrow=blockThin;endFill=1;jettySize=auto;orthogonalLoop=1;strokeColor=#4284F3;strokeWidth=2;fontSize=12;fontColor=#000000;align=center;dashed=1;entryX=-0.019;entryY=0.702;entryDx=0;entryDy=0;entryPerimeter=0;dashPattern=1 1;exitX=0.998;exitY=0.599;exitDx=0;exitDy=0;exitPerimeter=0;" parent="1" source="1wwzodUEzshTRSnOpasv-627" edge="1">
          <mxGeometry relative="1" as="geometry">
            <mxPoint x="290" y="350" as="sourcePoint" />
            <mxPoint x="566.9504999999999" y="279.9970000000002" as="targetPoint" />
            <Array as="points">
              <mxPoint x="540" y="320" />
            </Array>
          </mxGeometry>
        </mxCell>
        <mxCell id="1wwzodUEzshTRSnOpasv-700" style="edgeStyle=orthogonalEdgeStyle;rounded=0;elbow=vertical;html=1;labelBackgroundColor=none;startArrow=blockThin;startFill=1;startSize=4;endArrow=blockThin;endFill=1;endSize=4;jettySize=auto;orthogonalLoop=1;strokeColor=#4284F3;strokeWidth=2;fontSize=12;fontColor=#000000;align=center;dashed=0;" parent="1" edge="1">
          <mxGeometry relative="1" as="geometry">
            <mxPoint x="514" y="290.04333333333346" as="sourcePoint" />
            <mxPoint x="570" y="290" as="targetPoint" />
          </mxGeometry>
        </mxCell>
        <mxCell id="1wwzodUEzshTRSnOpasv-741" style="rounded=0;elbow=vertical;html=1;labelBackgroundColor=none;startArrow=blockThin;startFill=1;startSize=4;endArrow=blockThin;endFill=1;endSize=4;jettySize=auto;orthogonalLoop=1;strokeColor=#4284F3;strokeWidth=2;fontSize=12;fontColor=#000000;align=center;dashed=0;entryX=0.547;entryY=0.01;entryDx=0;entryDy=0;entryPerimeter=0;exitX=0.299;exitY=1.017;exitDx=0;exitDy=0;exitPerimeter=0;edgeStyle=orthogonalEdgeStyle;" parent="1" target="1wwzodUEzshTRSnOpasv-710" edge="1">
          <mxGeometry relative="1" as="geometry">
            <mxPoint x="674.1400000000001" y="308.4" as="sourcePoint" />
            <mxPoint x="510.0019999999997" y="339.9999999999999" as="targetPoint" />
            <Array as="points">
              <mxPoint x="674" y="320" />
              <mxPoint x="432" y="320" />
            </Array>
          </mxGeometry>
        </mxCell>
        <mxCell id="1wwzodUEzshTRSnOpasv-743" style="rounded=0;elbow=vertical;html=1;labelBackgroundColor=none;startArrow=blockThin;startFill=1;startSize=4;endArrow=blockThin;endFill=1;endSize=4;jettySize=auto;orthogonalLoop=1;strokeColor=#4284F3;strokeWidth=2;fontSize=12;fontColor=#000000;align=center;dashed=0;exitX=0.346;exitY=1.008;exitDx=0;exitDy=0;exitPerimeter=0;entryX=0.321;entryY=-0.019;entryDx=0;entryDy=0;entryPerimeter=0;" parent="1" source="1wwzodUEzshTRSnOpasv-688" target="1wwzodUEzshTRSnOpasv-701" edge="1">
          <mxGeometry relative="1" as="geometry">
            <mxPoint x="634.1400000000001" y="439.4" as="sourcePoint" />
            <mxPoint x="480" y="470" as="targetPoint" />
          </mxGeometry>
        </mxCell>
        <mxCell id="1wwzodUEzshTRSnOpasv-745" style="edgeStyle=orthogonalEdgeStyle;rounded=0;elbow=vertical;html=1;labelBackgroundColor=none;startArrow=blockThin;startFill=1;startSize=4;endArrow=blockThin;endFill=1;endSize=4;jettySize=auto;orthogonalLoop=1;strokeColor=#4284F3;strokeWidth=2;fontSize=12;fontColor=#000000;align=center;dashed=0;" parent="1" edge="1">
          <mxGeometry relative="1" as="geometry">
            <mxPoint x="498.5" y="379.5" as="sourcePoint" />
            <mxPoint x="528.5" y="379.5" as="targetPoint" />
          </mxGeometry>
        </mxCell>
        <mxCell id="1wwzodUEzshTRSnOpasv-736" value="Kubernetes cluster" style="strokeColor=#147EBA;dashed=1;verticalAlign=top;fontStyle=0;fontColor=#147EBA;align=left;spacingLeft=40;" parent="1" vertex="1">
          <mxGeometry x="470" y="608.38" width="490" height="371.62" as="geometry" />
        </mxCell>
        <mxCell id="1wwzodUEzshTRSnOpasv-729" value="&lt;b&gt;VUI&lt;/b&gt;" style="fillColor=#F6F6F6;strokeColor=none;shadow=0;gradientColor=none;fontSize=14;align=left;spacing=10;fontColor=#717171;9E9E9E;verticalAlign=top;spacingTop=-4;fontStyle=0;spacingLeft=40;html=1;container=0;" parent="1" vertex="1">
          <mxGeometry x="515" y="648.38" width="425" height="170" as="geometry" />
        </mxCell>
        <mxCell id="1wwzodUEzshTRSnOpasv-717" value="&lt;b&gt;Velero&lt;/b&gt;" style="fillColor=#F6F6F6;strokeColor=none;shadow=0;gradientColor=none;fontSize=14;align=left;spacing=10;fontColor=#717171;9E9E9E;verticalAlign=top;spacingTop=-4;fontStyle=0;spacingLeft=40;html=1;container=0;" parent="1" vertex="1">
          <mxGeometry x="518" y="828.38" width="422" height="140" as="geometry" />
        </mxCell>
        <mxCell id="1wwzodUEzshTRSnOpasv-718" value="" style="shape=image;verticalLabelPosition=bottom;labelBackgroundColor=default;verticalAlign=top;aspect=fixed;imageAspect=0;image=data:image/png,iVBORw0KGgoAAAANSUhEUgAAACoAAAAwCAIAAADo7H/xAAAAA3NCSVQICAjb4U/gAAAFUElEQVRYR+1Xe2xTZRRfu+52rz7X7uXmGGzMPdgYSDZAQEY0m+hQNIaIMUPNFqIohsxoVHA+iZkvjMQwWJSIGqfBCRniFJwQYEwGo4ONQdn70ff7sdvb1rPd5fZre3fbbkv2z26a5n7f75zzO9853znfd1lutzts/h72/FFPMC/Qz2P85zn4nNks3ekOU1qdYxYiPjr8ntiZmApZR2d3NcrNf/RZFVbniJkAD8iHh7GzRBGLBRH5Uu62rNggV8UKvu5vafFGuQV+QMxsPU+CbcviBeNEsPTfXDfU/qdnZvVBwYmqZYKy9GgGraDod/6tau63MlhhgL7aKGXwIDD92p+GAkabgR4gBg8CFF7FacUsuYF+11nVqV764DHRg875YTvzyoJE97fpBoyEv/C09Hf0jppLWn+Fmc0Mm4mXzqj8daete1ZYmNo2VWDLJNjx8iRUOaO+nxreeT4tGKip13Ksy7Q9m4cK02+9bi1uJ9zL47mUKMr3aqFwV6EgVAjk1yRHHi1NCEz/9TXD5+2hVTlqlOG9doPk8SUxlAB97iFQDCZmA5lxF6pOk/seHf7RA3GHO41otaAJPthh+OyKJza/lSdBgyONMkAn5JbXWtQyNR4g+CfvWnb/oz5WltClxetkpgIpdnCTdNBEbGwYJjVJV178U/lEZuzm9OghM/Hgz15QfaeRxWLtyOWhUOszKXf1jr0XtKe2JlMe0Gy9ozdN702WXCqPU5wUyQ1nfd9l8gl4rgSDXnZFYa/+V+MDwaH3TrEIJnecVvpA0RzWUhH28bq4TGEECdHQH7iqP3DV4KM5h0M0jzS5fzKTB+v2WdbLywXPZvOEXPYtnWNL4yjqzfqUqJrVYlCB47+yWdWt82R3VSL3k3USEqo+p2kd9euhcN77PCfl5h+6TWbc+eEl7ZIjffAbNRMg83qLuqRhqGXQCu9QGihUJzPA8LDMgEJtY3YYopDSSpT+OozS0QS/30hs+mUY1rSvWJzGnwhPj87xyPERdMVUABkgkEebFQyhWZUtilkqmko8zNDQw+zW30eve1fIXOW++n5hVb6nY9K3naezvDozyf3GKlHDo4nlSM+ifIKdAeW0s8BjF4WgMexeIYSZmAh2Sar35cc385NjjY0YMDrI7MI/ZBom5Xr8x24TvCgsxFMnRkm0vnMi3yor8WW7Xmd34k4XtWPgBaDbOvz9i9pzQ1at3bn/8sQM+tAHHzz9a8C2Njly3OkmXG5JVPib5zUNPWZyTYceii9JjaLWt++iFo4ycvh2kagil09B394wftCqI4fvrhZni7GVCZ5jDOanpb+hwX0KjDI6s5cNKVFHHo730aXPPQjlxmGV+Z51wAx0wC0ZMVDE/vQrErgVOfycuKnOjwqAHYBgZm+x2F9x2tWTopXNyjODts3pMTVrxHyMDbmI4rA6VPgrZ1VwgQEZEhJgbJPDBQK39Q44C0gIvPl0gyRDEAEQbIs0vqfeKD8C0GvtLrPDdS+PA18Xe1rUoAbJq10vkUaHw90NXEnhcS6P2bc3KQACvreKRAVSLrQpOHJAq00xAe1ZKaQtClAJQA8ShnEXnALf3fQ6dcDifWJMY3PKDY46mRGNalU+P0eMEe4w+Co6JDNCzJ/LoSljUiUwPSnX1GuF0gIylIn5HS4BL+TxH1vsudv4ywdLD5pw4f+iXU+Vn78tambuv/Eo03K9o0M9fk2JXxix9Xlf3YsSIwsTuHlxWOkipu861O8QVu+/XDhhByf3PzyF8VyMDbfz0J5Z0YdGRSc9bduhE577uQX6uY9p0BYXgh90qOZecJ6D/z8Hltw4oe9yRgAAAABJRU5ErkJggg==;" parent="1" vertex="1">
          <mxGeometry x="528" y="833.88" width="26.25" height="30" as="geometry" />
        </mxCell>
        <mxCell id="1wwzodUEzshTRSnOpasv-731" value="" style="shape=image;verticalLabelPosition=bottom;labelBackgroundColor=default;verticalAlign=top;aspect=fixed;imageAspect=0;image=data:image/png,iVBORw0KGgoAAAANSUhEUgAAAC8AAAA1CAIAAABeCCUGAAAAA3NCSVQICAjb4U/gAAAEpUlEQVRYR+1YR2wTQRRdtwU7cWInoFBCgBAllFCCqEGU0CQjOgJxoAgOtANFAgFCICMQB0CUAwjBidAiigidEIIg9CICBAVCUWgKQRQ7dlxIM38z47V317s7XuwIoezBWs/8mf/m/T+/rMrn81H/zKP+Z5AwQFrQiJvjf+Gm0Uedf+UpfOeN4C3QitMmM3PmpXtdQTUIze8fs2l0nIw02bRyS1U6G5CKw09dV954ydTJSClHE7zxmiv2dz/rZVQRTEcGjafOt+iszV33ty4UGTRw7I/2+pUX7QTnlxKJAJr2Rg3SUPTee+ixS0qb3JxyNCpKhTaf1dswpltr9L692PHwc62cUtH5MNCcfunOLXFBmBE+eyaaOpuYYAGzy87bfrgbhTIkI6Ro8ss8a69Wby5ynCx1o319FMYFLwad6uA0s17HsGX3NC7JtzUowkOKBoIKAmGksYF4Z01L1O6wmNBgSWXt1psOEjJ4MkRoyn/Uv6iqg5XAQY7fRYTKLOmt52XFoPFcRSGRCM2REkzM1J56ACTEwY5syInLTNKhvwpCojwaiGnnyjxIwRz/0cUAadUUOJBJz2yrICTKo7nw2oOCbJ92uow28lk2KVazf7JZ3cRguCFRHs2J5/gSze5rEKOENz64E716uBENQkg8+KiGcKEMGvDfUr//TuquJ9wUxBYPimVD4o7bTsKQKIOG3H+FQBWERCk/IPRfOPfee04hGhjJTNKC68ALhMSl+ba82YkayeNLoQGTk/gvoCExxNPKWgjoMzKlzC0F1eEveRcOwDEtmIDUBKmThKSKlluhkug1IQUefeaKpdXTe4U4EISTc68832pwPRpSffBgO6Nmcnc9ymViwlJoxNZEb1zKUtHTKrYzx5LHn7u/u0iZF9uRfDyrPT2ia6tg+QAaKFw2FjL9UXM+B6aax6XhuhH0BiyFMktzQgFdP7lVYoCbUamAEXMzp58hwRAtlwIEx57h3Dc2iBgAF0DTxqAemEw//sLU2GmJurlZpDkyXDqhuEZLBiXToDR4OefPhHRswsvluKAJVxOJ/OVy3CZbMgIegxZy0Fgy9KiwA4a+uxTV2XJwYNsnTfSDIks6P6hy0LSNYYwFotANFFf8lttZyfytCpxuQBGo423BzxyQBB41YVdzJT/Y6u9/qlWpqOyUVikm3FxKwBGTZ795zuwdwi/5aEAILAQ0TuuJaYTvRdYiR5X/+wggSI7XWMfE56RyAheLTFoe9m/wURoVFTL34Tx1qdzLdCcCBadK3esLqoXtJQSnnRNMU3rwDR+u/PX33roGcCDszhqr1Xq2zLPqkh0+m8H5hnQKnHj3Xee2m7iMyupAwxr4Bdqqapj2t+CtF1pxKIFZVhTIbyp0wBXratZmtGX6Hoab4g+/F5z+hTYFff076MC60C+WfGU6OnhWZBuXZ8eyWnfdce57gAvviMjnzkwY1plhAVsq7wWTpIQdP1hk2/h4ocdFST5Q31x76918g+OtHeM0W8bFj+SmWZahaMjzq60KdJMpamgK3cXMv3EsFPYlsvJ8NEJ9zTnCj4bNqVuoqwWNkBP/SAs3LdyIMyA+8wextg/mD0t7pAAAAABJRU5ErkJggg==;" parent="1" vertex="1">
          <mxGeometry x="523.4" y="648.38" width="26.6" height="29" as="geometry" />
        </mxCell>
        <mxCell id="1wwzodUEzshTRSnOpasv-742" value="" style="image;sketch=0;aspect=fixed;html=1;points=[];align=center;fontSize=12;image=img/lib/mscae/Kubernetes.svg;" parent="1" vertex="1">
          <mxGeometry x="478" y="610.38" width="30" height="28.8" as="geometry" />
        </mxCell>
        <mxCell id="1wwzodUEzshTRSnOpasv-720" value="" style="strokeColor=#dddddd;shadow=1;strokeWidth=1;rounded=1;absoluteArcSize=1;arcSize=2;container=0;" parent="1" vertex="1">
          <mxGeometry x="539.75" y="868.38" width="300.25" height="70" as="geometry" />
        </mxCell>
        <mxCell id="1wwzodUEzshTRSnOpasv-721" value="&lt;font style=&quot;text-align: left;&quot; color=&quot;#000000&quot;&gt;Velero core&lt;/font&gt;&lt;br style=&quot;color: rgb(153, 153, 153); text-align: left;&quot;&gt;&lt;span style=&quot;color: rgb(153, 153, 153); text-align: left;&quot;&gt;Backup/restore resources and volumes&lt;/span&gt;" style="sketch=0;outlineConnect=0;fontColor=#ffffff;fillColor=#1ba1e2;strokeColor=#006EAF;dashed=0;verticalLabelPosition=middle;verticalAlign=middle;align=left;html=1;fontSize=12;fontStyle=0;aspect=fixed;pointerEvents=1;shape=mxgraph.aws4.backup_compute;spacingLeft=20;labelPosition=right;" parent="1" vertex="1">
          <mxGeometry x="559.3104525862069" y="880.38" width="39.140224137931035" height="37.67198275862069" as="geometry" />
        </mxCell>
        <mxCell id="1wwzodUEzshTRSnOpasv-746" value="" style="group" parent="1" vertex="1" connectable="0">
          <mxGeometry x="539.5" y="678.38" width="390" height="130" as="geometry" />
        </mxCell>
        <mxCell id="1wwzodUEzshTRSnOpasv-722" value="Logical level" style="rounded=1;absoluteArcSize=1;arcSize=2;html=1;strokeColor=none;gradientColor=none;shadow=0;dashed=0;strokeColor=none;fontSize=12;fontColor=#9E9E9E;align=left;verticalAlign=top;spacing=10;spacingTop=-4;fillColor=#E1F5FE;" parent="1wwzodUEzshTRSnOpasv-746" vertex="1">
          <mxGeometry width="390" height="130" as="geometry" />
        </mxCell>
        <mxCell id="1wwzodUEzshTRSnOpasv-723" value="" style="strokeColor=#dddddd;shadow=1;strokeWidth=1;rounded=1;absoluteArcSize=1;arcSize=2;" parent="1wwzodUEzshTRSnOpasv-746" vertex="1">
          <mxGeometry x="199" y="45.5" width="161" height="70" as="geometry" />
        </mxCell>
        <mxCell id="1wwzodUEzshTRSnOpasv-724" value="&lt;font color=&quot;#000000&quot;&gt;VUI-Watchdog&lt;/font&gt;&lt;br&gt;&lt;font style=&quot;font-size: 10px;&quot;&gt;Notification engine&lt;/font&gt;" style="editableCssRules=.*;html=1;fontColor=#999999;shape=image;verticalLabelPosition=middle;verticalAlign=middle;labelPosition=right;align=left;spacingLeft=20;part=1;points=[];imageAspect=0;image=data:image/svg+xml,PHN2ZyB4bWxucz0iaHR0cDovL3d3dy53My5vcmcvMjAwMC9zdmciIHhtbG5zOnY9Imh0dHBzOi8vdmVjdGEuaW8vbmFubyIgd2lkdGg9IjE4LjMxOTk5OTY5NDgyNDIyIiBoZWlnaHQ9IjIwLjAwMDAwMTkwNzM0ODYzMyIgdmlld0JveD0iMCAwIDE4LjMxOTk5OTY5NDgyNDIyIDIwLjAwMDAwMTkwNzM0ODYzMyI+JiN4YTsJPHN0eWxlIHR5cGU9InRleHQvY3NzIj4mI3hhOwkuc3Qwe2ZpbGw6IzY2OWRmNjt9JiN4YTsJLnN0MXtmaWxsOiM0Mjg1ZjQ7fSYjeGE7CS5zdDJ7ZmlsbDojYWVjYmZhO30mI3hhOwk8L3N0eWxlPiYjeGE7CTxkZWZzPiYjeGE7CQk8ZmlsdGVyIGlkPSJBIiB4PSI0LjY0IiB5PSI0LjE5IiB3aWR0aD0iMTQuNzMiIGhlaWdodD0iMTIuNzYiIGZpbHRlclVuaXRzPSJ1c2VyU3BhY2VPblVzZSIgY29sb3ItaW50ZXJwb2xhdGlvbi1maWx0ZXJzPSJzUkdCIj4mI3hhOwkJCTxmZUZsb29kIGZsb29kLWNvbG9yPSIjZmZmIi8+JiN4YTsJCQk8ZmVCbGVuZCBpbj0iU291cmNlR3JhcGhpYyIvPiYjeGE7CQk8L2ZpbHRlcj4mI3hhOwkJPG1hc2sgaWQ9IkIiIHg9IjQuNjQiIHk9IjQuMTkiIHdpZHRoPSIxNC43MyIgaGVpZ2h0PSIxMi43NiIgbWFza1VuaXRzPSJ1c2VyU3BhY2VPblVzZSI+JiN4YTsJCQk8Y2lyY2xlIGN4PSIxMiIgY3k9IjEyLjIzIiByPSIzLjU4IiBmaWx0ZXI9InVybCgjQSkiLz4mI3hhOwkJPC9tYXNrPiYjeGE7CTwvZGVmcz4mI3hhOwk8ZyBjbGFzcz0ic3QwIj4mI3hhOwkJPGNpcmNsZSBjeD0iMTYuMTMiIGN5PSI2LjIxIiByPSIxLjcyIi8+JiN4YTsJCTxjaXJjbGUgY3g9IjIuMTkiIGN5PSI2LjIxIiByPSIxLjcyIi8+JiN4YTsJCTxjaXJjbGUgY3g9IjkuMTYiIGN5PSIxOC4yOCIgcj0iMS43MiIvPiYjeGE7CTwvZz4mI3hhOwk8ZyBtYXNrPSJ1cmwoI0IpIiB0cmFuc2Zvcm09InRyYW5zbGF0ZSgtMi44NCAtMikiPiYjeGE7CQk8cGF0aCB0cmFuc2Zvcm09Im1hdHJpeCguNSAtLjg3IC44NyAuNSAtNC41OSAyMC41MykiIGQ9Ik0xNC42OSAxMC4yMmgxLjU5djguMDRoLTEuNTl6IiBjbGFzcz0ic3QxIi8+JiN4YTsJCTxwYXRoIHRyYW5zZm9ybT0icm90YXRlKDMzMCA4LjUyMyAxNC4yNDQpIiBkPSJNNC40OSAxMy40NWg4LjA0djEuNTlINC40OXoiIGNsYXNzPSJzdDEiLz4mI3hhOwkJPHBhdGggZD0iTTExLjIgNC4xOWgxLjU5djguMDRIMTEuMnoiIGNsYXNzPSJzdDEiLz4mI3hhOwk8L2c+JiN4YTsJPGcgY2xhc3M9InN0MiI+JiN4YTsJCTxjaXJjbGUgY3g9IjkuMTYiIGN5PSIxMC4yMyIgcj0iMi43OCIvPiYjeGE7CQk8Y2lyY2xlIGN4PSIyLjE5IiBjeT0iMTQuMjUiIHI9IjIuMTkiLz4mI3hhOwkJPGNpcmNsZSBjeD0iMTYuMTMiIGN5PSIxNC4yNSIgcj0iMi4xOSIvPiYjeGE7CQk8Y2lyY2xlIGN4PSI5LjE2IiBjeT0iMi4xOSIgcj0iMi4xOSIvPiYjeGE7CTwvZz4mI3hhOzwvc3ZnPg==;" parent="1wwzodUEzshTRSnOpasv-723" vertex="1">
          <mxGeometry width="27" height="30" relative="1" as="geometry">
            <mxPoint x="16" y="15" as="offset" />
          </mxGeometry>
        </mxCell>
        <mxCell id="1wwzodUEzshTRSnOpasv-725" style="edgeStyle=orthogonalEdgeStyle;rounded=0;elbow=vertical;html=1;labelBackgroundColor=none;startArrow=blockThin;startFill=1;startSize=4;endArrow=blockThin;endFill=1;endSize=4;jettySize=auto;orthogonalLoop=1;strokeColor=#4284F3;strokeWidth=2;fontSize=12;fontColor=#000000;align=center;dashed=0;" parent="1wwzodUEzshTRSnOpasv-746" edge="1">
          <mxGeometry relative="1" as="geometry">
            <mxPoint x="169" y="91.5" as="sourcePoint" />
            <mxPoint x="199" y="91.5" as="targetPoint" />
          </mxGeometry>
        </mxCell>
        <mxCell id="1wwzodUEzshTRSnOpasv-726" value="" style="group" parent="1wwzodUEzshTRSnOpasv-746" vertex="1" connectable="0">
          <mxGeometry x="19" y="45.5" width="150.5" height="70" as="geometry" />
        </mxCell>
        <mxCell id="1wwzodUEzshTRSnOpasv-727" value="" style="strokeColor=#dddddd;shadow=1;strokeWidth=1;rounded=1;absoluteArcSize=1;arcSize=2;fillColor=default;container=0;" parent="1wwzodUEzshTRSnOpasv-726" vertex="1">
          <mxGeometry width="150.5" height="70" as="geometry" />
        </mxCell>
        <mxCell id="1wwzodUEzshTRSnOpasv-728" value="&lt;font style=&quot;forced-color-adjust: none; font-family: Helvetica; font-size: 12px; font-style: normal; font-variant-ligatures: normal; font-variant-caps: normal; font-weight: 400; letter-spacing: normal; orphans: 2; text-align: left; text-indent: 0px; text-transform: none; widows: 2; word-spacing: 0px; -webkit-text-stroke-width: 0px; white-space: nowrap; background-color: rgb(251, 251, 251); text-decoration-thickness: initial; text-decoration-style: initial; text-decoration-color: initial;&quot; color=&quot;#000000&quot;&gt;VUI-API&lt;/font&gt;&lt;br style=&quot;forced-color-adjust: none; color: rgb(153, 153, 153); font-family: Helvetica; font-size: 12px; font-style: normal; font-variant-ligatures: normal; font-variant-caps: normal; font-weight: 400; letter-spacing: normal; orphans: 2; text-align: left; text-indent: 0px; text-transform: none; widows: 2; word-spacing: 0px; -webkit-text-stroke-width: 0px; white-space: nowrap; background-color: rgb(251, 251, 251); text-decoration-thickness: initial; text-decoration-style: initial; text-decoration-color: initial;&quot;&gt;&lt;font style=&quot;forced-color-adjust: none; color: rgb(153, 153, 153); font-family: Helvetica; font-style: normal; font-variant-ligatures: normal; font-variant-caps: normal; font-weight: 400; letter-spacing: normal; orphans: 2; text-align: left; text-indent: 0px; text-transform: none; widows: 2; word-spacing: 0px; -webkit-text-stroke-width: 0px; white-space: nowrap; background-color: rgb(251, 251, 251); text-decoration-thickness: initial; text-decoration-style: initial; text-decoration-color: initial; font-size: 10px;&quot;&gt;Process engine&lt;/font&gt;" style="aspect=fixed;sketch=0;html=1;dashed=0;whitespace=wrap;verticalLabelPosition=middle;verticalAlign=middle;fillColor=#2875E2;strokeColor=#ffffff;points=[[0.005,0.63,0],[0.1,0.2,0],[0.9,0.2,0],[0.5,0,0],[0.995,0.63,0],[0.72,0.99,0],[0.5,1,0],[0.28,0.99,0]];shape=mxgraph.kubernetes.icon2;prIcon=api;spacingLeft=26;labelPosition=right;align=left;" parent="1wwzodUEzshTRSnOpasv-726" vertex="1">
          <mxGeometry x="9.376947040498443" y="15" width="32.81931464174455" height="30.718878504672894" as="geometry" />
        </mxCell>
        <mxCell id="1wwzodUEzshTRSnOpasv-744" style="rounded=0;elbow=vertical;html=1;labelBackgroundColor=none;startArrow=blockThin;startFill=1;startSize=4;endArrow=blockThin;endFill=1;endSize=4;jettySize=auto;orthogonalLoop=1;strokeColor=#4284F3;strokeWidth=2;fontSize=12;fontColor=#000000;align=center;dashed=0;entryX=0.35;entryY=0.025;entryDx=0;entryDy=0;entryPerimeter=0;" parent="1" target="1wwzodUEzshTRSnOpasv-720" edge="1">
          <mxGeometry relative="1" as="geometry">
            <mxPoint x="645.01" y="805.38" as="sourcePoint" />
            <mxPoint x="645.01" y="877.38" as="targetPoint" />
          </mxGeometry>
        </mxCell>
        <mxCell id="1wwzodUEzshTRSnOpasv-767" value="&lt;span style=&quot;font-weight: normal;&quot;&gt;&lt;font&gt;Agent mode.&lt;/font&gt;&lt;/span&gt;&lt;div&gt;&lt;font&gt;&lt;span style=&quot;font-weight: 400;&quot;&gt;You can add many clusters as you need&lt;/span&gt;&lt;/font&gt;&lt;/div&gt;" style="text;html=1;align=left;verticalAlign=bottom;whiteSpace=wrap;rounded=0;fontStyle=1;labelPosition=left;verticalLabelPosition=top;fontColor=#FF0000;" parent="1" vertex="1">
          <mxGeometry x="945" y="648.38" width="215" height="58.38" as="geometry" />
        </mxCell>
        <mxCell id="1wwzodUEzshTRSnOpasv-739" style="edgeStyle=orthogonalEdgeStyle;rounded=0;html=1;labelBackgroundColor=none;startArrow=blockThin;startFill=1;endArrow=blockThin;endFill=1;jettySize=auto;orthogonalLoop=1;strokeColor=#4284F3;strokeWidth=2;fontSize=12;fontColor=#000000;align=center;entryX=0.581;entryY=1.05;entryDx=0;entryDy=0;entryPerimeter=0;" parent="1" edge="1">
          <mxGeometry relative="1" as="geometry">
            <mxPoint x="641.88" y="723.8800000000001" as="sourcePoint" />
            <mxPoint x="737.85" y="303.5" as="targetPoint" />
            <Array as="points">
              <mxPoint x="641.88" y="567" />
              <mxPoint x="737.88" y="567" />
            </Array>
          </mxGeometry>
        </mxCell>
      </root>
    </mxGraphModel>
  </diagram>
</mxfile>
